<?xml version="1.0" encoding="iso-8859-1"?>
<!-- Generator: Adobe Illustrator 18.1.1, SVG Export Plug-In . SVG Version: 6.00 Build 0)  -->
<svg version="1.1" id="Capa_1" xmlns="http://www.w3.org/2000/svg" xmlns:xlink="http://www.w3.org/1999/xlink" x="0px" y="0px"
	 viewBox="0 0 592.904 592.904" style="enable-background:new 0 0 592.904 592.904;" xml:space="preserve">
<g>
	<path style="fill:#ffffff;" d="M345.155,98.631l-1.86-1.86l12.092-11.161l1.86,1.86L345.155,98.631z M337.714,94.91l-0.93-16.742
		h-2.79l0.93,16.742H337.714z M480.954,149.787c12.092,6.511,51.157,29.764,56.738,33.484c6.511,3.721-13.022,15.812-13.952,29.764
		c-0.93,18.602,9.301,5.581,9.301,5.581l5.581-10.231c13.022-22.323,24.183-39.995,2.79-53.017l-12.092-7.441
		c0,0-15.812-5.581-30.694-48.366c-11.161,13.022-0.93,28.834-0.93,28.834s-12.092-17.672-17.672-16.742
		C480.024,112.582,468.862,143.277,480.954,149.787z M330.273,99.561l-12.092-11.161l-1.86,2.79l12.092,11.161L330.273,99.561z
		 M257.724,58.635c-11.161-13.022-29.764-7.441-31.624,8.371l0,0c-1.86,13.952,10.231,23.253,21.393,31.624l0,0
		c0,0,6.511,4.651,8.371,7.441l0.93,0.93l0,0c0.93,0,0.93,0,0.93-0.93c1.86-1.86,5.581-4.651,7.441-5.581c0,0,0.93-0.93,1.86-0.93
		l0,0c10.231-8.371,23.253-17.672,21.393-31.624l0,0C287.488,51.194,267.955,45.613,257.724,58.635z M238.191,253.031
		c-21.393,1.86-39.995-1.86-54.877-13.952c-2.79-23.253-5.581-47.436-8.371-70.69c-1.86-19.533-14.882-36.275-36.275-37.205
		c-18.603,0-39.065,16.742-37.205,36.275c4.651,38.135,8.371,76.27,13.952,113.475L50.306,409.292l81.851,0.93
		c0,37.205,0,73.48,0,110.685c0,31.624,48.367,31.624,48.367,0c0-36.275,0-73.48,0-109.755h14.882V288.376
		c13.022,3.72,27.904,5.581,42.786,3.72C263.304,289.306,263.304,250.241,238.191,253.031z M559.084,539.51
		c-26.044-8.371-53.017-16.742-79.061-26.043c-33.484-11.162-53.947-40.926-65.109-73.48c-4.651-1.86-10.231-3.72-13.952-7.441
		c-9.301,0-18.603-0.93-26.974-0.93c1.86,29.764,14.882,57.668,31.624,81.851c19.533,29.764-27.904,57.668-47.436,27.904
		c-28.834-43.716-43.716-93.013-36.275-145.099c1.86-12.092,15.812-20.463,26.974-20.463c13.022,0,26.043,0,39.065,0
		c0.93-32.554,6.511-67.899,20.463-98.593l-1.86,28.834l28.834-39.995c-3.72-2.79-66.969-49.297-93.943-67.899
		c-14.882-9.301-14.882-26.044-8.371-38.135h-17.672v-29.764h4.651c-0.93-2.79-1.86-4.651-1.86-7.441
		c0-6.511,3.721-13.022,9.301-15.812l9.301-10.231l9.301,10.231c5.581,3.72,9.301,9.301,9.301,15.812c0,2.79-0.93,5.581-1.86,7.441
		h11.161V80.958h16.742v79.991c29.764,20.463,57.668,40.926,86.502,62.318c11.161-0.93,22.323,2.79,30.694,11.162
		c14.882,14.882,17.672,44.646,0,58.598c-28.834,24.183-29.764,74.41-29.764,109.755c0,0.93,0.93,14.882-1.86,20.463
		c1.86,6.511,8.371,27.904,42.786,42.786c21.393,6.511,42.786,13.952,63.248,20.463C607.451,497.654,593.499,550.671,559.084,539.51
		z M351.666,124.674c0-5.581-3.721-11.161-8.371-13.022h-12.092c-4.651,2.79-8.371,7.441-8.371,13.022c0,2.79,0.93,5.581,1.86,7.441
		h25.113C350.736,130.255,351.666,127.464,351.666,124.674z M409.334,355.345c0-6.511-2.79-11.161-5.581-11.161
		c-2.79,0-5.581,4.651-5.581,11.161c0,6.511,2.79,11.162,5.581,11.162C407.474,366.507,409.334,361.856,409.334,355.345z
		 M412.124,331.162c0-6.511-2.79-11.162-5.581-11.162c-2.79,0-5.581,4.651-5.581,11.162c0,6.511,2.79,11.161,5.581,11.161
		C410.264,342.323,412.124,336.743,412.124,331.162z M61.467,161.879c19.533,1.86,27.904-10.231,29.764-29.764
		c2.79-26.974-2.79-44.646,1.86-61.388c3.72,0,7.441,0.93,11.161,1.86c-0.93,3.72-1.86,8.371-1.86,12.092
		c0,22.323,18.603,40.925,40.926,40.925s40.925-18.603,40.925-40.925s-18.602-40.926-40.925-40.926
		c-10.231,0-20.463,3.721-27.904,11.162C86.581,23.29,51.236,41.893,65.188,79.098C81.93,126.534,91.231,157.228,61.467,161.879z
		 M20.542,240.94c-7.441-8.371-19.533-4.651-20.463,5.581l0,0c-0.93,9.301,6.511,14.882,13.952,20.463l0,0
		c0,0,5.581,4.651,6.511,4.651l6.511-4.651l0,0c7.441-5.581,14.882-11.161,13.952-20.463l0,0
		C40.074,236.289,27.983,232.569,20.542,240.94z"/>
</g>
<g>
</g>
<g>
</g>
<g>
</g>
<g>
</g>
<g>
</g>
<g>
</g>
<g>
</g>
<g>
</g>
<g>
</g>
<g>
</g>
<g>
</g>
<g>
</g>
<g>
</g>
<g>
</g>
<g>
</g>
</svg>
